<?xml version="1.0" standalone="no"?>
<!DOCTYPE svg PUBLIC "-//W3C//DTD SVG 20010904//EN"
 "http://www.w3.org/TR/2001/REC-SVG-20010904/DTD/svg10.dtd">
<svg version="1.0" xmlns="http://www.w3.org/2000/svg"
 width="256.000000pt" height="256.000000pt" viewBox="0 0 256.000000 256.000000"
 preserveAspectRatio="xMidYMid meet">

<g transform="translate(0.000000,256.000000) scale(0.100000,-0.100000)"
fill="#000000" stroke="none">
<path d="M660 2477 c-179 -54 -383 -246 -450 -424 -88 -237 -35 -469 166 -716
73 -89 70 -79 78 -357 7 -268 59 -527 129 -650 76 -134 178 -205 347 -242 95
-20 129 -22 350 -21 272 1 352 12 475 64 96 40 143 75 187 138 89 127 147 429
149 766 0 235 1 237 95 343 87 98 159 216 182 296 22 77 22 294 -1 376 -31
113 -78 199 -150 272 -108 110 -212 152 -377 151 -118 0 -180 -18 -180 -51 0
-21 11 -26 134 -63 l78 -23 -41 -18 c-63 -26 -52 -52 41 -99 86 -44 157 -158
178 -284 27 -164 -59 -366 -187 -442 l-48 -28 -575 0 -575 0 -45 30 c-118 80
-162 252 -105 421 49 146 125 249 239 323 35 23 67 50 71 59 7 19 -36 62 -62
62 -28 0 -6 12 74 40 61 22 79 32 81 49 8 51 -129 66 -258 28z m191 -17 c43 0
27 -16 -23 -24 -45 -7 -115 -43 -138 -70 -19 -24 5 -46 50 -46 20 0 40 -3 43
-6 4 -4 -19 -24 -51 -44 -104 -68 -219 -210 -260 -322 -9 -25 -17 -89 -20
-155 -4 -109 -3 -115 26 -177 37 -78 96 -145 154 -173 42 -20 54 -20 608 -19
651 3 611 -3 714 102 101 103 142 221 134 381 -4 78 -10 103 -36 156 -40 80
-131 182 -177 197 -19 6 -35 15 -35 20 0 9 35 20 68 20 27 0 29 21 3 44 -24
22 -143 66 -176 66 -43 0 -27 17 21 24 153 21 288 -15 397 -105 51 -42 141
-182 167 -259 31 -92 39 -271 15 -359 -31 -122 -88 -214 -198 -325 -33 -33
-63 -73 -68 -90 -5 -17 -14 -132 -19 -256 -22 -489 -68 -679 -194 -805 -60
-60 -120 -86 -259 -113 -130 -24 -491 -23 -632 2 -262 46 -367 160 -423 461
-31 160 -43 286 -51 501 l-6 191 -60 72 c-117 142 -128 157 -152 210 -36 80
-53 166 -53 268 0 117 13 178 60 279 59 129 217 271 356 324 60 22 151 40 172
34 8 -2 27 -4 43 -4z"/>
<path d="M1615 808 c-104 -38 -149 -103 -149 -213 -1 -184 155 -303 314 -239
115 46 164 220 98 352 -18 37 -35 53 -76 75 -59 32 -140 43 -187 25z"/>
<path d="M781 777 c-75 -31 -109 -75 -122 -161 -18 -117 13 -192 107 -257 50
-34 106 -40 183 -19 87 23 170 155 157 249 -16 115 -117 211 -221 211 -28 -1
-74 -11 -104 -23z"/>
</g>
</svg>
